# xmcd
#
# Track frame offsets:
#	150
#	2385
#	28402
#	48867
#	49720
#	70360
#	89777
#	110847
#	133505
#	136530
#	159907
#	182510
#	206972
#	232442
#	240680
#	242642
#	263340
#	303607
#
# Disc length: 4182 seconds
#
# Revision: 0
# Processed by: cddbd v1.5.2PL0 Copyright (c) Steve Scherf et al.
# Submitted via: EZCDAudioConverter 1.0.7.1
#
DISCID=fb105412
DTITLE=4Kast - Any Weather
DYEAR=1998
DGENRE=Soul
TTITLE0=Ed Lover (Intro) 
TTITLE1=Miss My Lovin' 
TTITLE2=I Tried 
TTITLE3=Rain Drop (Interlude) 
TTITLE4=If I Could 
TTITLE5=It's All Up To You 
TTITLE6=The Rose 
TTITLE7=How Can I 
TTITLE8=Realty (Interlude) 
TTITLE9=You Owe Me 
TTITLE10=You Know 
TTITLE11=This Feeling 
TTITLE12=Any Weather 
TTITLE13=Big Lez (Interlude) 
TTITLE14=I Spoke To You (Interlude)
TTITLE15=Rainy Daze 
TTITLE16=Because I Love You 
TTITLE17=Bonus Track 1 (Give Me My Money!)
EXTD=
EXTT0=
EXTT1=
EXTT2=
EXTT3=
EXTT4=
EXTT5=
EXTT6=
EXTT7=
EXTT8=
EXTT9=
EXTT10=
EXTT11=
EXTT12=
EXTT13=
EXTT14=
EXTT15=
EXTT16=
EXTT17=
PLAYORDER=
